#!OML:ASF F:\VICON\USERDATA\INSTALL\rory3\rory3.ASF
:FULLY-SPECIFIED
:DEGREES
586
root 1.38241 18.3868 47.4418 -3.23745 -12.0882 -3.1546
lowerback 15.2328 -1.24531 1.18832
upperback 1.42618 -1.16568 4.03883
thorax -6.96944 -0.551292 3.88394
lowerneck -3.69358 -4.77127 -6.63179
upperneck 32.0225 -4.50992 -5.54035
head 11.0218 -3.52642 -1.3534
rclavicle 7.15625e-015 2.22639e-014
rhumerus -66.1478 -34.4303 -37.1864
rradius 94.6995
rwrist -47.855
rhand 0.588353 -6.29933
rfingers 7.12502
rthumb 26.1538 -34.5179
lclavicle 7.15625e-015 2.22639e-014
lhumerus -62.0357 19.6931 62.5657
lradius 27.0232
lwrist 1.4588
lhand -8.47148 50.7592
lfingers 7.12502
lthumb 17.4551 79.9955
rfemur 7.37486 3.48082 30.3955
rtibia 25.8238
rfoot -13.6057 -3.13859
rtoes 5.18416
lfemur -23.5652 -11.0724 -11.5196
ltibia 24.9993
lfoot -10.3225 19.2515
ltoes -22.954
587
root 1.38638 18.3653 47.6561 -3.16946 -12.553 -2.81158
lowerback 14.9713 -1.2819 0.895645
upperback 1.37113 -1.27964 3.91069
thorax -6.87302 -0.60092 3.92789
lowerneck -3.46831 -4.88895 -6.87875
upperneck 31.6144 -4.72817 -5.39525
head 10.834 -3.62848 -1.26057
rclavicle 1.3418e-014 3.97569e-015
rhumerus -65.6108 -35.3943 -36.3277
rradius 95.9903
rwrist -45.4664
rhand 1.74395 -5.92521
rfingers 7.12502
rthumb 27.2597 -33.9751
lclavicle 1.3418e-014 3.97569e-015
lhumerus -62.6876 19.8181 62.2029
lradius 26.9727
lwrist 1.37791
lhand -8.14264 50.9021
lfingers 7.12502
lthumb 17.7716 80.1101
rfemur 8.01747 3.26268 29.6344
rtibia 25.8846
rfoot -14.0352 -2.22889
rtoes 4.47425
lfemur -23.4445 -12.9934 -11.2576
ltibia 23.2253
lfoot -11.2363 19.7556
ltoes -20.4395
588
root 1.38318 18.341 47.8621 -3.19322 -13.1656 -2.61035
lowerback 14.6562 -1.18553 0.69811
upperback 1.57611 -1.21184 3.78385
thorax -6.48129 -0.570486 3.8716
lowerneck -3.6149 -5.14763 -6.94598
upperneck 31.261 -5.10931 -5.31965
head 10.7331 -3.79306 -1.2537
rclavicle 2.85256e-014 4.77083e-015
rhumerus -64.8126 -33.8229 -37.3289
rradius 99.1336
rwrist -44.8837
rhand 0.122141 -5.62746
rfingers 7.12502
rthumb 25.7074 -33.9114
lclavicle 2.85256e-014 4.77083e-015
lhumerus -62.7476 19.9006 62.0144
lradius 26.8987
lwrist 1.29901
lhand -7.81823 50.7394
lfingers 7.12502
lthumb 18.0837 79.9188
rfemur 8.65965 3.41246 29.186
rtibia 26.0836
rfoot -14.3531 -1.63112
rtoes 2.24647
lfemur -23.2926 -14.7867 -10.8304
ltibia 21.9573
lfoot -12.8087 20.975
ltoes -19.4028
589
root 1.37828 18.3151 48.0483 -3.19631 -13.7427 -2.59808
lowerback 14.4374 -1.03723 0.800216
upperback 1.97799 -1.03559 3.574
thorax -5.94811 -0.497951 3.53497
lowerneck -4.19859 -5.56771 -6.83864
upperneck 30.8231 -5.75382 -5.04225
head 10.6841 -4.03317 -1.24319
rclavicle 1.47101e-014 1.74931e-014
rhumerus -64.0924 -35.3503 -36.847
rradius 100.724
rwrist -42.4368
rhand 0.987106 -5.87952
rfingers 7.12502
rthumb 26.5355 -34.041
lclavicle 1.47101e-014 1.74931e-014
lhumerus -62.0466 19.9238 61.938
lradius 26.6523
lwrist 1.27875
lhand -7.86385 50.523
lfingers 7.12502
lthumb 18.0398 79.7064
rfemur 9.06008 3.7661 29.0722
rtibia 26.5161
rfoot -14.5683 -1.31353
rtoes 0.0421053
lfemur -23.1744 -15.62 -10.434
ltibia 21.0562
lfoot -13.9892 20.5287
ltoes -13.9713
590
root 1.36804 18.2868 48.2086 -2.9769 -14.2396 -3.07265
lowerback 15.7062 -1.25425 0.702538
upperback 1.05908 -1.24723 3.84055
thorax -7.61669 -0.568982 3.99585
lowerneck -2.90379 -5.51927 -7.43773
upperneck 30.5169 -5.80172 -4.90331
head 10.3538 -4.10366 -1.0441
rclavicle 6.44062e-014 -3.57812e-014
rhumerus -63.4745 -33.9462 -36.737
rradius 102.656
rwrist -40.9055
rhand 0.929893 -5.18412
rfingers 7.12502
rthumb 26.4807 -33.3539
lclavicle 6.44062e-014 -3.57812e-014
lhumerus -64.1815 19.9427 61.0469
lradius 26.8413
lwrist 1.29436
lhand -8.44983 50.171
lfingers 7.12502
lthumb 17.476 79.4055
rfemur 9.06922 4.35616 29.6609
rtibia 27.2237
rfoot -14.8169 -1.33133
rtoes -1.83765
lfemur -23.1774 -15.0293 -9.80496
ltibia 20.3102
lfoot -14.2133 19.2272
ltoes -16.3494
591
root 1.36206 18.244 48.364 -2.77188 -14.7162 -3.54816
lowerback 16.2688 -1.36432 0.80393
upperback 0.846276 -1.33791 3.98629
thorax -8.15462 -0.60501 4.14812
lowerneck -2.68076 -5.7197 -7.8253
upperneck 30.1132 -6.14664 -4.65991
head 10.192 -4.27023 -0.908132
rclavicle 6.39093e-014 -1.59028e-015
rhumerus -61.9973 -33.1133 -37.9202
rradius 104.94
rwrist -40.9327
rhand -1.69972 -4.71013
rfingers 7.12502
rthumb 23.9614 -33.2349
lclavicle 6.39093e-014 -1.59028e-015
lhumerus -64.8094 20.154 60.614
lradius 26.9514
lwrist 1.23326
lhand -9.73657 49.5353
lfingers 7.12502
lthumb 16.2373 78.8754
rfemur 8.99941 4.9673 30.2345
rtibia 28.1028
rfoot -15.1301 -1.33402
rtoes -3.49003
lfemur -23.2741 -14.6127 -9.09496
ltibia 19.4765
lfoot -13.8849 18.4861
ltoes -17.6152
592
root 1.36392 18.1917 48.5791 -2.85679 -14.948 -3.25499
lowerback 15.964 -1.44173 0.670318
upperback 0.915936 -1.49529 3.76301
thorax -7.90077 -0.684671 4.00121
lowerneck -2.46874 -6.12011 -8.42239
upperneck 29.6633 -6.84433 -4.03335
head 10.0509 -4.57776 -0.638584
rclavicle -4.63665e-014 -3.10104e-014
rhumerus -61.2341 -32.5205 -38.3746
rradius 107.111
rwrist -38.5196
rhand -1.49445 -4.24654
rfingers 7.12502
rthumb 24.1582 -32.7453
lclavicle -4.63665e-014 -3.10104e-014
lhumerus -64.8473 20.0693 60.4184
lradius 27.0089
lwrist 1.24863
lhand -10.4873 49.3236
lfingers 7.12502
lthumb 15.5143 78.7211
rfemur 9.46206 4.93691 29.6307
rtibia 28.6757
rfoot -14.9535 -0.957626
rtoes -2.89217
lfemur -23.5047 -15.0544 -9.24744
ltibia 19.4333
lfoot -14.6554 17.931
ltoes -14.8632
593
root 1.36498 18.1409 48.8047 -3.06744 -14.9274 -2.92513
lowerback 15.9249 -1.64132 0.481282
upperback 0.76797 -1.80516 3.56906
thorax -8.01985 -0.828157 3.97181
lowerneck -1.82637 -6.50278 -9.31077
upperneck 29.2117 -7.56521 -3.29584
head 9.86233 -4.91876 -0.27272
rclavicle -2.50469e-014 -2.06736e-014
rhumerus -60.6047 -31.4755 -38.7505
rradius 109.048
rwrist -35.5918
rhand -1.17406 -3.15337
rfingers 7.12502
rthumb 24.4654 -31.6109
lclavicle -2.50469e-014 -2.06736e-014
lhumerus -65.3523 19.8201 60.1889
lradius 27.1369
lwrist 1.38944
lhand -10.2726 49.526
lfingers 7.12502
lthumb 15.7211 78.9075
rfemur 9.86829 4.72247 28.9961
rtibia 29.6889
rfoot -13.6668 -1.10868
rtoes 0.811142
lfemur -22.9765 -14.3403 -10.0259
ltibia 18.7926
lfoot -14.1037 16.253
ltoes -22.4858
594
root 1.35941 18.1601 49.0214 -3.28158 -14.8106 -2.72994
lowerback 15.752 -1.81459 0.393132
upperback 0.826327 -2.06838 3.42819
thorax -7.84537 -0.9583 3.9168
lowerneck -1.13823 -6.94861 -9.78501
upperneck 28.2059 -8.34503 -2.87161
head 9.44062 -5.25862 -0.0690512
rclavicle -3.10601e-014 -1.59028e-015
rhumerus -59.3359 -30.6578 -39.4212
rradius 110.56
rwrist -32.7156
rhand -1.49082 -1.92498
rfingers 7.12502
rthumb 24.1617 -30.4232
lclavicle -3.10601e-014 -1.59028e-015
lhumerus -65.4733 19.8089 60.0422
lradius 27.1885
lwrist 1.29937
lhand -10.1051 49.7625
lfingers 7.12502
lthumb 15.8824 79.1312
rfemur 10.4905 4.48309 28.5534
rtibia 30.2447
rfoot -13.498 -0.60487
rtoes -0.103232
lfemur -22.3388 -10.3989 -11.972
ltibia 19.5076
lfoot -10.7418 13.4926
ltoes -29.778
